<svg xmlns="http://www.w3.org/2000/svg" viewBox="0 6.570000171661377 174.5800018310547 40.77000045776367" data-asc="0.9375" width="174.5800018310547" height="40.77000045776367"><defs/><g fill="#000000"><g transform="translate(0, 0)"><path d="M0 10.60L20.92 10.60Q24.98 10.60 28.02 11.45Q31.05 12.30 33.09 13.84Q35.13 15.38 36.16 17.53Q37.18 19.68 37.18 22.27Q37.18 25.46 35.67 27.94Q34.16 30.42 31.18 31.88L38.79 46.90L22.85 46.90L17.09 33.72L14.11 33.72L14.11 46.88L0 46.88L0 10.60M14.97 29.30Q16.70 29.30 18.07 28.81Q19.43 28.32 20.39 27.43Q21.34 26.54 21.85 25.31Q22.36 24.07 22.36 22.61Q22.36 21.14 21.85 19.91Q21.34 18.68 20.39 17.79Q19.43 16.89 18.07 16.41Q16.70 15.92 14.97 15.92L14.14 15.92L14.11 29.30L14.97 29.30ZM42.72 39.26Q42.72 37.50 43.51 35.99Q44.29 34.47 45.75 33.35Q47.22 32.23 49.29 31.58Q51.37 30.93 53.93 30.93Q56.49 30.93 58.73 31.53Q60.96 32.13 62.48 33.06L62.48 32.86Q62.48 31.15 62.10 29.96Q61.72 28.76 60.94 28.00Q60.16 27.25 58.95 26.90Q57.74 26.56 56.10 26.56Q54.61 26.56 53.03 26.82Q51.44 27.08 50.10 27.56L48.32 24.27Q50.98 23.17 53.82 22.69Q56.67 22.22 59.69 22.22Q63.57 22.22 66.56 22.96Q69.56 23.71 71.59 25.18Q73.63 26.66 74.68 28.89Q75.73 31.13 75.73 34.13L75.73 46.88L63.35 46.88L62.52 44.53Q61.79 45.09 60.79 45.61Q59.79 46.12 58.59 46.51Q57.40 46.90 56.05 47.12Q54.71 47.34 53.25 47.34Q50.85 47.34 48.91 46.72Q46.97 46.09 45.61 45.02Q44.24 43.95 43.48 42.47Q42.72 40.99 42.72 39.26M56.40 38.75Q56.40 40.06 57.25 40.88Q58.11 41.70 59.55 41.70Q60.33 41.70 61.08 41.44Q61.84 41.19 62.48 40.67L62.48 36.55Q61.25 35.82 59.79 35.82Q58.13 35.82 57.26 36.63Q56.40 37.45 56.40 38.75ZM80.74 34.79Q80.74 31.93 81.73 29.61Q82.71 27.29 84.57 25.65Q86.43 24.00 89.07 23.11Q91.72 22.22 95.02 22.22Q97.53 22.22 99.54 22.81Q101.54 23.41 102.98 24.39L102.98 6.57L116.24 6.57L116.24 46.88L104.03 46.88L103.03 43.85Q102.34 44.51 101.39 45.14Q100.44 45.78 99.29 46.26Q98.14 46.75 96.81 47.05Q95.48 47.34 94.02 47.34Q91.26 47.34 88.84 46.53Q86.43 45.73 84.62 44.15Q82.81 42.58 81.77 40.22Q80.74 37.87 80.74 34.79M94.41 34.33Q94.41 36.43 94.81 37.92Q95.21 39.40 95.92 40.34Q96.63 41.28 97.61 41.72Q98.58 42.16 99.76 42.16Q100.68 42.16 101.50 41.83Q102.32 41.50 102.98 40.99L102.98 27.61Q102.37 27.08 101.60 26.78Q100.83 26.49 100.10 26.49Q98.88 26.49 97.84 26.94Q96.80 27.39 96.03 28.34Q95.26 29.30 94.84 30.77Q94.41 32.25 94.41 34.33ZM129.69 18.65Q127.88 18.65 126.57 18.26Q125.27 17.87 124.44 17.18Q123.61 16.48 123.22 15.56Q122.83 14.65 122.83 13.57Q122.83 12.52 123.22 11.60Q123.61 10.67 124.44 9.97Q125.27 9.28 126.57 8.89Q127.88 8.50 129.69 8.50Q131.52 8.50 132.81 8.89Q134.11 9.28 134.95 9.97Q135.79 10.67 136.18 11.60Q136.57 12.52 136.57 13.57Q136.57 14.65 136.18 15.56Q135.79 16.48 134.95 17.18Q134.11 17.87 132.81 18.26Q131.52 18.65 129.69 18.65M123.07 22.68L136.33 22.68L136.33 46.88L123.07 46.88L123.07 22.68ZM141.58 39.26Q141.58 37.50 142.36 35.99Q143.14 34.47 144.60 33.35Q146.07 32.23 148.14 31.58Q150.22 30.93 152.78 30.93Q155.35 30.93 157.58 31.53Q159.81 32.13 161.33 33.06L161.33 32.86Q161.33 31.15 160.95 29.96Q160.57 28.76 159.79 28.00Q159.01 27.25 157.80 26.90Q156.59 26.56 154.96 26.56Q153.47 26.56 151.88 26.82Q150.29 27.08 148.95 27.56L147.17 24.27Q149.83 23.17 152.67 22.69Q155.52 22.22 158.54 22.22Q162.43 22.22 165.42 22.96Q168.41 23.71 170.45 25.18Q172.49 26.66 173.54 28.89Q174.58 31.13 174.58 34.13L174.58 46.88L162.21 46.88L161.38 44.53Q160.64 45.09 159.64 45.61Q158.64 46.12 157.45 46.51Q156.25 46.90 154.91 47.12Q153.56 47.34 152.10 47.34Q149.71 47.34 147.77 46.72Q145.83 46.09 144.46 45.02Q143.09 43.95 142.33 42.47Q141.58 40.99 141.58 39.26M155.25 38.75Q155.25 40.06 156.10 40.88Q156.96 41.70 158.40 41.70Q159.18 41.70 159.94 41.44Q160.69 41.19 161.33 40.67L161.33 36.55Q160.11 35.82 158.64 35.82Q156.98 35.82 156.12 36.63Q155.25 37.45 155.25 38.75Z"/></g></g></svg>